<svg width="615" height="795" viewBox="0 0 615 795" fill="none" xmlns="http://www.w3.org/2000/svg">
<g filter="url(#filter0_f_337_649)">
<path fill-rule="evenodd" clip-rule="evenodd" d="M102.693 210.027C199.003 211.916 200.393 303.889 254.724 352.63C291.471 385.595 347.602 407.352 365.442 445.742C391.358 501.508 434.189 567.356 375.698 612.946C315.789 659.641 199.154 656.576 102.693 650.538C16.8582 645.165 -56.9527 618.219 -119.686 581.939C-184.806 544.278 -265.298 499.935 -251.423 445.742C-237.934 393.055 -118.36 385.714 -59.3998 346.468C5.24164 303.44 7.27271 208.155 102.693 210.027Z" fill="url(#paint0_linear_337_649)" fill-opacity="0.6"/>
</g>
<defs>
<filter id="filter0_f_337_649" x="-463" y="0" width="1078" height="863.906" filterUnits="userSpaceOnUse" color-interpolation-filters="sRGB">
<feFlood flood-opacity="0" result="BackgroundImageFix"/>
<feBlend mode="normal" in="SourceGraphic" in2="BackgroundImageFix" result="shape"/>
<feGaussianBlur stdDeviation="105" result="effect1_foregroundBlur_337_649"/>
</filter>
<linearGradient id="paint0_linear_337_649" x1="-435.778" y1="460.903" x2="427.324" y2="348.766" gradientUnits="userSpaceOnUse">
<stop stop-color="#60B63F"/>
<stop offset="0.700754" stop-color="#012AC8"/>
<stop offset="1" stop-color="#AD2638"/>
</linearGradient>
</defs>
</svg>
