<svg width="848" height="757" viewBox="0 0 848 757" fill="none" xmlns="http://www.w3.org/2000/svg">
<g filter="url(#filter0_f_337_650)">
<path fill-rule="evenodd" clip-rule="evenodd" d="M732.687 210.521C874.079 211.948 876.12 281.432 955.883 318.255C1009.83 343.16 1092.23 359.597 1118.43 388.6C1156.47 430.73 1219.35 480.477 1133.48 514.92C1045.53 550.197 874.301 547.882 732.687 543.32C606.675 539.261 498.314 518.904 406.217 491.495C310.614 463.042 192.446 429.542 212.815 388.6C232.618 348.795 408.164 343.25 494.722 313.6C589.621 281.093 592.602 209.107 732.687 210.521Z" fill="url(#paint0_linear_337_650)" fill-opacity="0.6"/>
<path fill-rule="evenodd" clip-rule="evenodd" d="M732.687 210.521C874.079 211.948 876.12 281.432 955.883 318.255C1009.83 343.16 1092.23 359.597 1118.43 388.6C1156.47 430.73 1219.35 480.477 1133.48 514.92C1045.53 550.197 874.301 547.882 732.687 543.32C606.675 539.261 498.314 518.904 406.217 491.495C310.614 463.042 192.446 429.542 212.815 388.6C232.618 348.795 408.164 343.25 494.722 313.6C589.621 281.093 592.602 209.107 732.687 210.521Z" stroke="black"/>
</g>
<defs>
<filter id="filter0_f_337_650" x="0" y="0" width="1387" height="756.365" filterUnits="userSpaceOnUse" color-interpolation-filters="sRGB">
<feFlood flood-opacity="0" result="BackgroundImageFix"/>
<feBlend mode="normal" in="SourceGraphic" in2="BackgroundImageFix" result="shape"/>
<feGaussianBlur stdDeviation="105" result="effect1_foregroundBlur_337_650"/>
</filter>
<linearGradient id="paint0_linear_337_650" x1="-57.8333" y1="400.054" x2="1153.45" y2="94.2387" gradientUnits="userSpaceOnUse">
<stop stop-color="#60B63F"/>
<stop offset="0.700754" stop-color="#012AC8"/>
<stop offset="1" stop-color="#AD2638"/>
</linearGradient>
</defs>
</svg>
